<svg width="30" height="30" viewBox="0 0 30 30" fill="none" xmlns="http://www.w3.org/2000/svg">
<path d="M15.0038 1.78735e-07C17.3112 0.00080117 19.5874 0.533824 21.6552 1.55761C23.723 2.5814 25.5268 4.06835 26.9262 5.90282C28.3256 7.73729 29.2829 9.86982 29.7237 12.1345C30.1645 14.3993 30.0769 16.7351 29.4677 18.9605C28.8584 21.1858 27.744 23.2407 26.2111 24.9651C24.6781 26.6896 22.768 28.0373 20.6293 28.9033C18.4906 29.7693 16.1809 30.1303 13.8798 29.9582C11.5788 29.7862 9.34853 29.0857 7.3624 27.9112L1.23618 29.9512C1.07114 30.006 0.894114 30.0138 0.724902 29.9737C0.55569 29.9336 0.400956 29.8473 0.277996 29.7243C0.155035 29.6014 0.0686926 29.4467 0.0286185 29.2775C-0.0114555 29.1083 -0.00368199 28.9313 0.0510703 28.7662L2.09314 22.6425C0.744242 20.3646 0.0222554 17.7704 0.000506335 15.1232C-0.0212427 12.4761 0.658021 9.87031 1.96931 7.57058C3.2806 5.27086 5.17721 3.35909 7.46651 2.02943C9.75581 0.699771 12.3563 -0.000408426 15.0038 1.78735e-07ZM9.77951 7.5075C9.58872 7.51392 9.40163 7.56187 9.23127 7.64801C9.06092 7.73415 8.91141 7.8564 8.79316 8.00625C8.45563 8.40187 7.50304 9.36562 7.50304 11.3194C7.50304 13.2769 8.82504 15.1706 9.01068 15.4369C9.19445 15.6956 11.6134 19.7119 15.3169 21.4369C16.0045 21.7556 16.7045 22.0344 17.4171 22.2731C18.3022 22.5731 19.1085 22.5337 19.7461 22.4325C20.4568 22.32 21.9288 21.4706 22.2382 20.5387C22.5439 19.6144 22.5439 18.8175 22.4501 18.6506C22.3582 18.4856 22.1126 18.3844 21.7413 18.1819C21.3738 17.985 19.5567 17.0231 19.2192 16.8937C18.8816 16.7569 18.6341 16.695 18.3885 17.0906C18.1409 17.49 17.4377 18.3862 17.2202 18.6506C17.0083 18.9112 16.7889 18.9487 16.4233 18.75C16.052 18.5531 14.865 18.1312 13.453 16.7737C12.356 15.7219 11.6153 14.415 11.4015 14.0194C11.184 13.62 11.3772 13.4081 11.5609 13.2075C11.7297 13.0312 11.9322 12.7462 12.116 12.5119C12.2979 12.2831 12.3635 12.1181 12.4873 11.85C12.6073 11.5856 12.5454 11.3512 12.4535 11.1544C12.3616 10.9575 11.6228 8.99437 11.3153 8.1975C11.0153 7.42312 10.7096 7.53187 10.4846 7.51687C10.2708 7.5075 10.0252 7.5075 9.77951 7.5075Z" fill="black"/>
</svg>
